<?xml version="1.0" standalone="no"?><!DOCTYPE svg PUBLIC "-//W3C//DTD SVG 1.1//EN" "http://www.w3.org/Graphics/SVG/1.1/DTD/svg11.dtd"><svg t="1726033046879" class="icon" viewBox="0 0 1024 1024" version="1.1" xmlns="http://www.w3.org/2000/svg" p-id="11212" xmlns:xlink="http://www.w3.org/1999/xlink" width="200" height="200"><path d="M884.224 468.224H555.776V139.776A43.904 43.904 0 0 0 512 96a43.904 43.904 0 0 0-43.776 43.776v328.448H139.776A43.904 43.904 0 0 0 96 512c0 24.064 19.712 43.776 43.776 43.776h328.448v328.448c0 24.064 19.712 43.776 43.776 43.776a43.904 43.904 0 0 0 43.776-43.776V555.776h328.448A43.904 43.904 0 0 0 928 512a43.904 43.904 0 0 0-43.776-43.776z" fill="#666666" p-id="11213"></path></svg>