<?xml version="1.0" standalone="no"?>
<!DOCTYPE svg PUBLIC "-//W3C//DTD SVG 1.1//EN" "http://www.w3.org/Graphics/SVG/1.1/DTD/svg11.dtd"><svg t="1724321087875"
  class="icon" viewBox="0 0 1024 1024" version="1.1" xmlns="http://www.w3.org/2000/svg" p-id="7163"
  xmlns:xlink="http://www.w3.org/1999/xlink" width="200" height="200">
  <path
    d="M103.04 959.104a33.28 33.28 0 0 0 25.984-10.432L544.512 572.16a41.728 41.728 0 0 0 12.992-28.608 41.728 41.728 0 0 0-12.992-28.544L129.024 138.496a37.632 37.632 0 0 0-54.528 2.56 37.632 37.632 0 0 0 2.56 54.528L461.44 543.552l-384.32 348.032a37.632 37.632 0 0 0-2.56 54.528 41.728 41.728 0 0 0 28.544 12.992z m402.56 0a33.28 33.28 0 0 0 25.92-10.432l415.488-376.512A41.728 41.728 0 0 0 960 543.552a41.728 41.728 0 0 0-12.992-28.544L531.52 138.496a37.632 37.632 0 0 0-54.528 2.56 37.632 37.632 0 0 0 2.56 54.528L864 543.552l-384.384 348.032c-15.552 15.552-18.176 38.912-2.56 54.528a41.728 41.728 0 0 0 28.544 12.992z"
    fill="#666666" p-id="7164"></path>
</svg>