<?xml version="1.0" standalone="no"?>
<!DOCTYPE svg PUBLIC "-//W3C//DTD SVG 1.1//EN" "http://www.w3.org/Graphics/SVG/1.1/DTD/svg11.dtd"><svg t="1724321118684"
  class="icon" viewBox="0 0 1024 1024" version="1.1" xmlns="http://www.w3.org/2000/svg" p-id="7308"
  xmlns:xlink="http://www.w3.org/1999/xlink" width="200" height="200">
  <path
    d="M930.88 344.448c-41.856-111.744-130.304-209.472-241.984-256-102.4-51.2-232.768-51.2-349.12-9.344A516.288 516.288 0 0 0 153.6 200.128l-9.28 13.952v-120.96C144.32 69.76 130.304 51.2 102.4 51.2c-27.904 0-41.92 18.56-41.92 41.92v251.328c0 23.232 14.016 41.856 41.92 41.856h251.328c23.296 0 41.92-13.952 41.92-41.856 0-23.296-13.952-41.92-41.92-41.92H186.24l9.344-9.28c41.856-60.544 97.728-107.072 167.552-135.04 88.448-37.184 195.456-32.512 288.576 9.344 88.448 41.92 158.272 111.744 195.456 204.8 37.248 93.12 37.248 200.128-4.608 293.248-41.92 88.448-111.744 158.272-204.8 195.52-88.448 37.184-195.52 32.576-288.64-9.344-88.384-41.856-158.208-111.68-195.456-204.8-4.672-13.952-23.296-27.904-37.248-27.904-4.672 0-9.28 0-18.56 4.608a56.064 56.064 0 0 0-23.296 23.296 39.744 39.744 0 0 0 0 32.64c41.856 111.68 130.304 209.408 241.984 256a455.296 455.296 0 0 0 190.848 41.856c55.872 0 116.352-9.344 162.944-27.968 111.68-41.856 209.408-130.304 256-241.984 41.856-125.696 46.528-251.392 4.608-363.072z"
    fill="#666666" p-id="7309"></path>
</svg>